<svg xmlns="http://www.w3.org/2000/svg" width="24" height="24" viewBox="0 0 24 24" fill="none">
  <path fill="currentColor" d="M22.025,10.135c-0.428,0-0.775,0.347-0.775,0.775v0.351h-0.554V8.492c0-1.028-0.837-1.865-1.865-1.865H3.065C2.037,6.628,1.2,7.464,1.2,8.492v7.015c0,1.028,0.837,1.865,1.865,1.865h15.766c0.851,0,1.563-0.577,1.786-1.357c0.012,0.001,0.021,0.007,0.033,0.007c0.393,0,0.711-0.351,0.711-0.785c0-0.415-0.295-0.747-0.665-0.774v-1.725h0.554v0.351c0,0.428,0.347,0.775,0.775,0.775c0.428,0,0.775-0.347,0.775-0.775v-2.178C22.8,10.483,22.453,10.135,22.025,10.135z M19.514,15.508c0,0.376-0.307,0.683-0.683,0.683H3.065c-0.377,0-0.683-0.307-0.683-0.683V8.492c0-0.377,0.306-0.683,0.683-0.683h15.766c0.376,0,0.683,0.306,0.683,0.683V15.508z"/>
  <path fill="currentColor" d="M9.582,9.96L4.929,13.412L9.009,11.972L11.114,14.058L16.357,9.942L11.28,11.935z"/>
</svg>
